<svg xmlns="http://www.w3.org/2000/svg" viewBox="0 0 118 48" focusable="false">
    <g>
        <path d="M54.61.22h0C89 .22 116.78 10.86 116.78 24S89 47.78 54.61 47.78c-23.56 0-44.07-5-54.61-12.41 10.59 5.4 28.5 9 48.82 9 32.53 0 58.91-9.1 58.91-20.32S81.35 3.68 48.82 3.68C28.5 3.68 10.59 7.23 0 12.62 10.54 5.23 31.05.22 54.61.22M94.71 24c0 7.18-12.71 13.59-27.77 13.48h-.25l-.45-.81A28.93 28.93 0 0 1 63.17 24a28.48 28.48 0 0 1 3.07-12.66l.46-.82h.24C82 10.4 94.71 16.81 94.71 24ZM59.87 24a32.17 32.17 0 0 1 3.07-13.48H34.51l-.46.82A28.55 28.55 0 0 0 31 24a28.93 28.93 0 0 0 3.07 12.67l.44.81H63A32.24 32.24 0 0 1 59.87 24ZM27.69 24a32 32 0 0 1 3.07-13.48H25.59l-.47.82A28.71 28.71 0 0 0 22.06 24a28.93 28.93 0 0 0 3.07 12.67l.45.81h5.19A32.24 32.24 0 0 1 27.69 24Z" fill="#ed1c24" fill-rule="evenodd" />
    </g>
</svg>